<svg width="121" height="40" viewBox="0 0 121 40" fill="none" xmlns="http://www.w3.org/2000/svg">
<path d="M44.7328 19.6461L33.9399 0.951215C33.8606 0.813873 33.7126 0.72876 33.554 0.72876H11.9671C11.8085 0.72876 11.661 0.813873 11.5817 0.951215L0.788303 19.6461C0.708993 19.7835 0.708993 19.9542 0.788303 20.0915L11.5817 38.786C11.661 38.9233 11.8085 39.0089 11.9671 39.0089H33.554C33.7126 39.0089 33.8606 38.9233 33.9399 38.786L44.7328 20.0915C44.8121 19.9542 44.8121 19.7835 44.7328 19.6461ZM23.8211 2.53113C24.0426 2.30867 24.3381 2.18632 24.6519 2.18632H32.2913C32.7096 2.18632 33.0994 2.41168 33.3083 2.77389L37.1234 9.38129C37.4465 9.9413 37.2545 10.6604 36.6949 10.9844L30.8855 14.3507C30.7041 14.4557 30.503 14.5094 30.2989 14.5094C30.1973 14.5094 30.0948 14.4963 29.9937 14.4692C29.6905 14.388 29.4371 14.1936 29.2799 13.9218L27.8654 11.4724C27.7861 11.3345 27.6386 11.2494 27.48 11.2494H24.6626C24.016 11.2494 23.4893 10.7233 23.4884 10.0767L23.4777 3.36292C23.4773 3.04858 23.5991 2.75358 23.8211 2.53113ZM30.6911 20.4557L27.2343 26.4431C27.0254 26.8053 26.6356 27.0302 26.2173 27.0302H19.3038C18.8855 27.0302 18.4962 26.8053 18.2868 26.4431L14.83 20.4562C14.6211 20.0939 14.6211 19.6437 14.83 19.2815L18.2868 13.2946C18.4962 12.9323 18.8855 12.707 19.3038 12.707H26.2173C26.6356 12.707 27.0254 12.9323 27.2343 13.2946L30.6911 19.2815C30.9 19.6437 30.9 20.0939 30.6911 20.4557ZM8.39288 9.38999L12.2128 2.77389C12.4217 2.41168 12.8115 2.18632 13.2298 2.18632H20.8697C21.1835 2.18632 21.4785 2.30867 21.7005 2.53113C21.9225 2.75358 22.0444 3.04858 22.0439 3.36243L22.0332 10.0767C22.0323 10.7233 21.5056 11.2494 20.8591 11.2494H18.0411C17.8825 11.2494 17.735 11.3345 17.6557 11.4724L16.247 13.9121C16.0298 14.2884 15.6338 14.4987 15.2276 14.4987C15.0293 14.4987 14.8281 14.4484 14.6443 14.343L8.82425 10.9951C8.55198 10.8384 8.35757 10.585 8.27585 10.2817C8.19412 9.97853 8.23619 9.66178 8.39288 9.38999ZM7.52095 27.6598C7.41891 27.6598 7.31687 27.6463 7.2158 27.6197C6.9121 27.5384 6.65869 27.344 6.50201 27.0723L2.68207 20.4562C2.47267 20.0939 2.47267 19.6437 2.68207 19.2815L6.50153 12.6654C6.6587 12.3936 6.9121 12.1992 7.2158 12.118C7.51902 12.0372 7.83577 12.0793 8.10755 12.2364L13.917 15.6028C14.4761 15.9268 14.6685 16.6464 14.345 17.2059L12.9363 19.6461C12.857 19.7835 12.857 19.9542 12.9363 20.0915L14.3455 22.5318C14.6685 23.0918 14.4765 23.8109 13.917 24.1349L8.10755 27.5012C7.9262 27.6062 7.72503 27.6598 7.52095 27.6598ZM22.0337 36.3786C22.0327 37.0252 21.5061 37.5509 20.8595 37.5509H13.2298C12.8115 37.5509 12.4217 37.326 12.2128 36.9638L8.39288 30.3477C8.23619 30.0759 8.1946 29.7591 8.27585 29.4559C8.35757 29.1527 8.55246 28.8993 8.82473 28.7426L14.6443 25.3951C15.2048 25.0726 15.9239 25.266 16.247 25.8255L17.6557 28.2653C17.735 28.4026 17.8825 28.4882 18.0411 28.4882H20.8702C21.184 28.4882 21.479 28.6106 21.701 28.8326C21.923 29.055 22.0448 29.35 22.0444 29.6643L22.0337 36.3786ZM37.1234 30.3564L33.3083 36.9638C33.0994 37.326 32.7096 37.5509 32.2913 37.5509H24.6616C24.015 37.5509 23.4884 37.0252 23.4874 36.3786L23.4763 29.6643C23.4758 29.3505 23.5977 29.055 23.8196 28.8326C24.0416 28.6106 24.3366 28.4882 24.6509 28.4882H27.48C27.6386 28.4882 27.7861 28.4026 27.8654 28.2653L29.2799 25.8159C29.4371 25.5436 29.6905 25.3492 29.9937 25.2684C30.2974 25.1872 30.6142 25.2293 30.8855 25.3864L36.6949 28.7528C37.2545 29.0773 37.4465 29.7964 37.1234 30.3564ZM42.8395 20.4557L39.0244 27.0636C38.8073 27.4398 38.4112 27.6502 38.005 27.6502C37.8067 27.6502 37.6056 27.6003 37.4218 27.4944L31.6017 24.1465C31.3294 23.9898 31.135 23.7364 31.0533 23.4332C30.9716 23.13 31.0132 22.8132 31.1703 22.5414L32.5848 20.0915C32.6642 19.9542 32.6642 19.7835 32.5848 19.6461L31.1703 17.1962C31.0132 16.924 30.9716 16.6072 31.0533 16.304C31.1345 16.0008 31.3294 15.7474 31.6017 15.5912L37.4218 12.2432C37.9823 11.9207 38.7009 12.1141 39.0244 12.6741L42.8391 19.2815C43.0485 19.6437 43.0484 20.0935 42.8395 20.4557Z" fill="#706228"/>
<path d="M45.3642 19.2815L34.5708 0.587088C34.3614 0.224873 33.9721 0 33.5538 0H11.967C11.5487 0 11.1594 0.224873 10.95 0.587088L0.157048 19.2815C-0.0523494 19.6437 -0.0523494 20.094 0.157048 20.4562L10.95 39.1506C11.1594 39.5128 11.5487 39.7377 11.967 39.7377H33.5538C33.9721 39.7377 34.3614 39.5128 34.5708 39.1506L45.3642 20.4557C45.5732 20.094 45.5732 19.6437 45.3642 19.2815ZM44.7327 20.0915L33.9397 38.786C33.8604 38.9233 33.7124 39.0089 33.5538 39.0089H11.967C11.8084 39.0089 11.6609 38.9233 11.5816 38.786L0.788143 20.0915C0.708833 19.9542 0.708833 19.7835 0.788143 19.6462L11.5816 0.951237C11.6609 0.813895 11.8084 0.728782 11.967 0.728782H33.5538C33.7124 0.728782 33.8604 0.813895 33.9397 0.951237L44.7327 19.6462C44.812 19.7835 44.812 19.9542 44.7327 20.0915Z" fill="#2D1F0D"/>
<path d="M30.6909 19.2815L27.2341 13.2946C27.0252 12.9324 26.6354 12.707 26.2171 12.707H19.3036C18.8853 12.707 18.496 12.9324 18.2866 13.2946L14.8298 19.2815C14.6209 19.6438 14.6209 20.094 14.8298 20.4562L18.2866 26.4431C18.496 26.8054 18.8853 27.0302 19.3036 27.0302H26.2171C26.6354 27.0302 27.0252 26.8054 27.2341 26.4431L30.6909 20.4557C30.8998 20.094 30.8998 19.6438 30.6909 19.2815ZM30.0598 20.0916L26.603 26.079C26.5237 26.2163 26.3757 26.3014 26.2171 26.3014H19.3036C19.145 26.3014 18.997 26.2163 18.9177 26.079L15.4609 20.0916C15.3816 19.9542 15.3816 19.7835 15.4609 19.6462L18.9177 13.6588C18.997 13.5214 19.145 13.4363 19.3036 13.4363H26.2171C26.3757 13.4363 26.5237 13.5214 26.603 13.6588L30.0598 19.6462C30.1391 19.7835 30.1391 19.9542 30.0598 20.0916Z" fill="#2D1F0D"/>
<path d="M21.7002 2.53108C21.4782 2.30863 21.1832 2.18628 20.8694 2.18628H13.2295C12.8112 2.18628 12.4214 2.41164 12.2125 2.77385L8.39257 9.38995C8.23589 9.66173 8.19381 9.97849 8.27554 10.2817C8.35727 10.5849 8.55168 10.8383 8.82394 10.995L14.644 14.343C14.8278 14.4484 15.029 14.4987 15.2273 14.4987C15.6335 14.4987 16.0295 14.2883 16.2467 13.9121L17.6554 11.4723C17.7347 11.3345 17.8822 11.2494 18.0408 11.2494H20.8588C21.5053 11.2494 22.032 10.7232 22.0329 10.0767L22.0436 3.36239C22.0441 3.04853 21.9222 2.75354 21.7002 2.53108ZM21.3041 10.0757C21.3037 10.3209 21.1039 10.5206 20.8588 10.5206H18.0408C17.623 10.5206 17.2332 10.7455 17.0243 11.1077L15.6156 13.5474C15.4928 13.7597 15.22 13.8332 15.0077 13.7109L9.18761 10.3629C9.08412 10.3035 9.01061 10.2077 8.97966 10.0926C8.94871 9.97752 8.96419 9.85759 9.02367 9.7541L12.8436 3.138C12.9229 3.00066 13.0709 2.91554 13.2295 2.91554H20.8694C20.9884 2.91554 21.1001 2.96197 21.1842 3.04612C21.2684 3.13026 21.3148 3.24246 21.3148 3.36142L21.3041 10.0757Z" fill="#2D1F0D"/>
<path d="M37.1232 9.38124L33.3081 2.77385C33.0992 2.41164 32.7094 2.18628 32.2911 2.18628H24.6517C24.3379 2.18628 24.0424 2.30863 23.8209 2.53108C23.5989 2.75354 23.4771 3.04853 23.4775 3.36287L23.4882 10.0767C23.4891 10.7232 24.0158 11.2494 24.6624 11.2494H27.4798C27.6384 11.2494 27.7859 11.3345 27.8652 11.4723L29.2797 13.9217C29.4369 14.1935 29.6903 14.3879 29.9935 14.4692C30.0946 14.4963 30.1971 14.5093 30.2987 14.5093C30.5028 14.5093 30.7039 14.4556 30.8853 14.3507L36.6947 10.9844C37.2543 10.6604 37.4463 9.94125 37.1232 9.38124ZM36.3296 10.3538L30.5202 13.7201C30.4172 13.7796 30.2967 13.7955 30.1817 13.7651C30.0666 13.7341 29.9703 13.6606 29.9108 13.5571L28.4968 11.1077C28.2874 10.7455 27.8976 10.5206 27.4798 10.5206H24.6624C24.4172 10.5206 24.2174 10.3209 24.217 10.0757L24.2063 3.36142C24.2063 3.24246 24.2523 3.13026 24.3364 3.04612C24.4206 2.96197 24.5328 2.91554 24.6517 2.91554H32.2911C32.4497 2.91554 32.5977 3.00066 32.677 3.138L36.4921 9.74588C36.6145 9.95818 36.5414 10.2309 36.3296 10.3538Z" fill="#2D1F0D"/>
<path d="M42.8388 19.2816L39.0242 12.6742C38.7007 12.1142 37.982 11.9207 37.4216 12.2433L31.6015 15.5912C31.3292 15.7474 31.1343 16.0008 31.0531 16.3041C30.9713 16.6073 31.0129 16.924 31.1701 17.1963L32.5846 19.6462C32.6639 19.7835 32.6639 19.9543 32.5846 20.0916L31.1701 22.5415C31.0129 22.8133 30.9713 23.13 31.0531 23.4333C31.1348 23.7365 31.3292 23.9899 31.6015 24.1466L37.4216 27.4945C37.6053 27.6004 37.8065 27.6502 38.0048 27.6502C38.411 27.6502 38.8071 27.4399 39.0242 27.0636L42.8393 20.4557C43.0482 20.0935 43.0482 19.6438 42.8388 19.2816ZM42.2077 20.0916L38.3931 26.699C38.2703 26.9118 37.9975 26.9848 37.7852 26.8624L31.9651 23.5145C31.8616 23.455 31.7881 23.3593 31.7572 23.2442C31.7262 23.1291 31.7417 23.0091 31.8012 22.9057L33.2157 20.4557C33.4251 20.0935 33.4251 19.6438 33.2157 19.2816L31.8012 16.8317C31.7417 16.7287 31.7257 16.6082 31.7567 16.4931C31.7876 16.3781 31.8616 16.2823 31.9651 16.2228L37.7852 12.8749C37.9975 12.753 38.2703 12.826 38.3931 13.0383L42.2077 19.6462C42.287 19.7835 42.287 19.9543 42.2077 20.0916Z" fill="#2D1F0D"/>
<path d="M36.695 28.7528L30.8856 25.3865C30.6143 25.2293 30.2975 25.1872 29.9938 25.2685C29.6906 25.3492 29.4372 25.5436 29.28 25.8159L27.8655 28.2653C27.7862 28.4027 27.6387 28.4883 27.4801 28.4883H24.651C24.3367 28.4883 24.0417 28.6106 23.8197 28.8326C23.5978 29.055 23.4759 29.3505 23.4764 29.6644L23.4875 36.3786C23.4885 37.0252 24.0151 37.5509 24.6617 37.5509H32.2914C32.7097 37.5509 33.0995 37.326 33.3084 36.9638L37.1235 30.3564C37.4466 29.7964 37.2546 29.0773 36.695 28.7528ZM32.2914 36.8221H24.6617C24.4165 36.8221 24.2168 36.6224 24.2163 36.3772L24.2056 29.6629C24.2052 29.544 24.2516 29.4322 24.3357 29.3476C24.4199 29.2635 24.5316 29.217 24.651 29.217H27.4801C27.8979 29.217 28.2877 28.9922 28.4971 28.63L29.9111 26.1801C29.9711 26.077 30.0668 26.0031 30.1819 25.9726C30.297 25.9416 30.4175 25.9576 30.5205 26.0176L36.3299 29.3839C36.5417 29.5067 36.6148 29.7795 36.4924 29.9918L32.6773 36.5992C32.598 36.737 32.45 36.8221 32.2914 36.8221Z" fill="#2D1F0D"/>
<path d="M21.7005 28.8326C21.4785 28.6106 21.1835 28.4883 20.8697 28.4883H18.0406C17.882 28.4883 17.7345 28.4027 17.6552 28.2653L16.2465 25.8256C15.9234 25.266 15.2043 25.0726 14.6438 25.3952L8.82421 28.7426C8.55195 28.8993 8.35706 29.1527 8.27533 29.4559C8.19408 29.7591 8.23567 30.0759 8.39236 30.3477L12.2123 36.9638C12.4212 37.326 12.811 37.5509 13.2293 37.5509H20.859C21.5056 37.5509 22.0322 37.0252 22.0332 36.3786L22.0438 29.6644C22.0443 29.35 21.9225 29.055 21.7005 28.8326ZM21.3044 36.3772C21.3039 36.6224 21.1042 36.8221 20.859 36.8221H13.2293C13.0707 36.8221 12.9227 36.737 12.8434 36.5996L9.02394 29.9835C8.96397 29.88 8.9485 29.7601 8.97945 29.645C9.0104 29.5299 9.08439 29.4342 9.18739 29.3747L15.0075 26.0267C15.2198 25.9044 15.4925 25.9779 15.6154 26.1902L17.0241 28.6299C17.233 28.9922 17.6228 29.217 18.0406 29.217H20.8697C20.9886 29.217 21.1003 29.2635 21.1845 29.3476C21.2686 29.4322 21.3151 29.5439 21.3151 29.6629L21.3044 36.3772Z" fill="#2D1F0D"/>
<path d="M14.3457 22.5318L12.9365 20.0915C12.8572 19.9542 12.8572 19.7835 12.9365 19.6461L14.3452 17.2059C14.6687 16.6464 14.4762 15.9268 13.9172 15.6028L8.10774 12.2365C7.83596 12.0793 7.5192 12.0372 7.21598 12.118C6.91228 12.1992 6.65888 12.3936 6.50171 12.6654L2.68226 19.2815C2.47286 19.6437 2.47286 20.094 2.68226 20.4562L6.50219 27.0723C6.65888 27.3441 6.91228 27.5385 7.21598 27.6197C7.31706 27.6463 7.4191 27.6598 7.52113 27.6598C7.72521 27.6598 7.92639 27.6062 8.10774 27.5012L13.9172 24.1349C14.4767 23.8109 14.6687 23.0918 14.3457 22.5318ZM13.5516 23.5043L7.74214 26.8706C7.63913 26.9301 7.5192 26.9461 7.4041 26.9156C7.28901 26.8846 7.19277 26.8111 7.13329 26.7076L3.31335 20.0915C3.23404 19.9542 3.23404 19.7835 3.31335 19.6461L7.13329 13.03C7.19277 12.927 7.28901 12.8531 7.4041 12.8226C7.44231 12.8119 7.481 12.8071 7.51968 12.8071C7.59706 12.8071 7.67347 12.8274 7.74214 12.8671L13.5516 16.2334C13.7639 16.3567 13.8364 16.6295 13.7141 16.8418L12.3054 19.2815C12.0965 19.6437 12.0965 20.094 12.3054 20.4562L13.7141 22.8959C13.8369 23.1087 13.7639 23.3815 13.5516 23.5043Z" fill="#2D1F0D"/>
<g clip-path="url(#clip0_17407_6)">
<path d="M50.7319 18.1789V6.62305H55.4617C56.9875 6.62305 58.0691 6.95625 58.7056 7.62266C59.1603 8.09744 59.3879 8.72809 59.3879 9.51558C59.3879 10.1515 59.2562 10.692 58.9938 11.1363C58.7309 11.5806 58.3468 11.9038 57.8415 12.1054C58.5286 12.257 59.0568 12.5597 59.4256 13.014C59.7944 13.4683 59.9791 14.0489 59.9791 14.7558C59.9791 15.3011 59.8731 15.8007 59.6608 16.255C59.4485 16.7092 59.1703 17.0677 58.8273 17.3304C58.0791 17.8957 57.0285 18.1784 55.674 18.1784H50.7319V18.1789ZM55.2341 11.2879C56.194 11.2879 56.674 10.9094 56.674 10.152C56.674 9.77871 56.5528 9.5008 56.31 9.31918C56.1783 9.2186 56.0041 9.14757 55.787 9.10706C55.5695 9.06701 55.2641 9.04652 54.87 9.04652H53.4449V11.2879H55.2336H55.2341ZM55.3252 15.7554C55.7093 15.7554 56.0299 15.7301 56.2876 15.6796C56.5452 15.6291 56.7547 15.5385 56.9164 15.4069C57.1488 15.2253 57.2652 14.9326 57.2652 14.5284C57.2652 14.0841 57.1263 13.7862 56.8482 13.6351C56.57 13.4835 56.1282 13.4077 55.5218 13.4077H53.4449V15.7554H55.3247H55.3252Z" fill="#8E7B2D"/>
<path d="M69.2863 18.1789H61.3885V6.62305H69.2863V9.04604H64.1019V11.1968H68.7858V13.6051H64.1019V15.7559H69.2863V18.1789Z" fill="#8E7B2D"/>
<path d="M80.3068 18.1789H77.4417L75.7589 13.7261H73.5608V18.1789H70.8474V6.62305H76.3047C77.4365 6.62305 78.3282 6.90334 78.9804 7.46344C79.6322 8.02403 79.9581 8.90494 79.9581 10.1062C79.9581 10.8231 79.8116 11.449 79.5186 11.9843C79.2252 12.5196 78.8216 12.9334 78.3058 13.2261L80.3068 18.1784V18.1789ZM73.5608 9.04604V11.3785H75.9254C76.8248 11.3785 77.2747 10.9847 77.2747 10.1972C77.2747 9.82399 77.1612 9.53846 76.9336 9.34158C76.706 9.14471 76.3701 9.04652 75.9254 9.04652H73.5608V9.04604Z" fill="#8E7B2D"/>
<path d="M83.5809 18.1789H80.7005L84.6573 6.62305H87.5983L91.5546 18.1789H88.6747L88.053 16.1038H84.2026L83.5809 18.1789ZM86.1278 9.63713L84.9149 13.7566H87.3401L86.1273 9.63713H86.1278Z" fill="#8E7B2D"/>
<path d="M60.1909 32.8576H57.3258L55.643 28.4049H53.4449V32.8576H50.7319V21.3018H56.1893C57.321 21.3018 58.2127 21.582 58.865 22.1422C59.5167 22.7027 59.8426 23.5837 59.8426 24.7849C59.8426 25.5018 59.6961 26.1277 59.4032 26.663C59.1097 27.1984 58.7061 27.6121 58.1903 27.9048L60.1914 32.8571L60.1909 32.8576ZM53.4453 23.7248V26.0572H55.81C56.7093 26.0572 57.1593 25.6634 57.1593 24.8759C57.1593 24.5027 57.0457 24.2172 56.8181 24.0203C56.5905 23.8234 56.2546 23.7252 55.81 23.7252H53.4453V23.7248Z" fill="#8E7B2D"/>
<path d="M69.3622 32.8576H61.4644V21.3018H69.3622V23.7248H64.1778V25.8756H68.8617V28.2838H64.1778V30.4346H69.3622V32.8576Z" fill="#8E7B2D"/>
<path d="M73.3943 32.7212C72.6161 32.4585 71.9544 32.0147 71.4085 31.3884C70.8627 30.7625 70.5545 29.9445 70.4839 28.9349H73.2884C73.6219 30.2071 74.4507 30.843 75.7747 30.843C76.28 30.843 76.707 30.7348 77.0558 30.5175C77.4046 30.3006 77.5787 29.9798 77.5787 29.556C77.5787 29.2733 77.4699 29.0412 77.2528 28.8591C77.0353 28.6775 76.7623 28.5359 76.4341 28.4348C76.1053 28.3342 75.643 28.2179 75.0471 28.0864C74.1477 27.8847 73.4177 27.6774 72.8566 27.4652C72.2955 27.2531 71.8108 26.9175 71.4014 26.458C70.992 25.9985 70.7873 25.375 70.7873 24.5875C70.7873 23.8 70.9768 23.1713 71.3556 22.6412C71.7344 22.1111 72.2473 21.715 72.8943 21.4523C73.5408 21.1902 74.2684 21.0586 75.0771 21.0586C75.8859 21.0586 76.6736 21.2026 77.3812 21.49C78.0883 21.7779 78.6747 22.2122 79.1398 22.7923C79.6046 23.3729 79.898 24.0774 80.0192 24.905H77.2147C77.073 24.4102 76.8129 24.0241 76.4341 23.7461C76.0552 23.4687 75.5824 23.3295 75.0166 23.3295C74.5919 23.3295 74.2307 23.4153 73.9325 23.5869C73.6343 23.7585 73.4855 24.0164 73.4855 24.3592C73.4855 24.6218 73.589 24.8363 73.7961 25.0027C74.0031 25.1691 74.266 25.303 74.5843 25.4041C74.9025 25.5051 75.3496 25.6214 75.9259 25.7525C76.8253 25.9546 77.5682 26.1668 78.1541 26.3884C78.74 26.6106 79.2458 26.9638 79.6699 27.4486C80.0946 27.9334 80.3064 28.5897 80.3064 29.4173C80.3064 30.1747 80.1246 30.8311 79.7606 31.386C79.3965 31.9413 78.876 32.368 78.1994 32.6659C77.5224 32.9638 76.7189 33.1125 75.789 33.1125C74.9703 33.1125 74.172 32.981 73.3939 32.7188L73.3943 32.7212Z" fill="#8E7B2D"/>
<path d="M89.6141 32.8576H81.7163V21.3018H89.6141V23.7248H84.4297V25.8756H89.1136V28.2838H84.4297V30.4346H89.6141V32.8576Z" fill="#8E7B2D"/>
<path d="M100.635 32.8576H97.7695L96.0867 28.4049H93.8886V32.8576H91.1752V21.3018H96.6326C97.7643 21.3018 98.656 21.582 99.3083 22.1422C99.9605 22.7023 100.286 23.5837 100.286 24.7849C100.286 25.5018 100.139 26.1277 99.8465 26.663C99.553 27.1984 99.1494 27.6121 98.6336 27.9048L100.635 32.8571V32.8576ZM93.8886 23.7248V26.0572H96.2532C97.1526 26.0572 97.6026 25.6634 97.6026 24.8759C97.6026 24.5027 97.489 24.2172 97.2614 24.0203C97.0338 23.8234 96.6979 23.7252 96.2532 23.7252H93.8886V23.7248Z" fill="#8E7B2D"/>
<path d="M107.744 32.8576H104.803L100.846 21.3018H103.727L106.274 29.8135L108.821 21.3018H111.701L107.745 32.8576H107.744Z" fill="#8E7B2D"/>
<path d="M120.447 32.8576H112.549V21.3018H120.447V23.7248H115.263V25.8756H119.947V28.2838H115.263V30.4346H120.447V32.8576Z" fill="#8E7B2D"/>
</g>
<defs>
<clipPath id="clip0_17407_6">
<rect width="69.7153" height="26.4918" fill="white" transform="translate(50.7319 6.62305)"/>
</clipPath>
</defs>
</svg>
