<svg width="46" height="40" viewBox="0 0 46 40" fill="none" xmlns="http://www.w3.org/2000/svg">
<path d="M45.2061 19.7761L34.3419 0.95781C34.2621 0.819562 34.1131 0.733887 33.9534 0.733887H12.2241C12.0645 0.733887 11.916 0.819562 11.8362 0.95781L0.971496 19.7761C0.891663 19.9144 0.891663 20.0862 0.971496 20.2245L11.8362 39.0423C11.916 39.1805 12.0645 39.2667 12.2241 39.2667H33.9534C34.1131 39.2667 34.2621 39.1805 34.3419 39.0423L45.2061 20.2245C45.2859 20.0862 45.2859 19.9144 45.2061 19.7761ZM24.1563 2.54815C24.3793 2.32423 24.6767 2.20107 24.9926 2.20107H32.6824C33.1035 2.20107 33.4959 2.42791 33.7062 2.79252L37.5464 9.44353C37.8716 10.0072 37.6784 10.7311 37.1151 11.0572L31.2673 14.4458C31.0848 14.5514 30.8823 14.6054 30.6769 14.6054C30.5746 14.6054 30.4714 14.5923 30.3697 14.565C30.0645 14.4833 29.8094 14.2876 29.6512 14.014L28.2273 11.5484C28.1475 11.4097 27.999 11.324 27.8394 11.324H25.0033C24.3525 11.324 23.8224 10.7944 23.8214 10.1435L23.8107 3.38543C23.8102 3.06902 23.9329 2.77208 24.1563 2.54815ZM31.0716 20.591L27.5921 26.618C27.3818 26.9826 26.9894 27.2089 26.5684 27.2089H19.6092C19.1881 27.2089 18.7963 26.9826 18.5855 26.618L15.1059 20.5915C14.8956 20.2269 14.8956 19.7737 15.1059 19.4091L18.5855 13.3826C18.7963 13.018 19.1881 12.7912 19.6092 12.7912H26.5684C26.9894 12.7912 27.3818 13.018 27.5921 13.3826L31.0716 19.4091C31.2819 19.7737 31.2819 20.2269 31.0716 20.591ZM8.62626 9.45229L12.4714 2.79252C12.6817 2.42791 13.0741 2.20107 13.4951 2.20107H21.1854C21.5014 2.20107 21.7983 2.32423 22.0217 2.54815C22.2452 2.77208 22.3678 3.06902 22.3674 3.38494L22.3567 10.1435C22.3557 10.7944 21.8256 11.324 21.1747 11.324H18.3382C18.1785 11.324 18.0301 11.4097 17.9502 11.5484L16.5322 14.0043C16.3136 14.383 15.915 14.5947 15.5061 14.5947C15.3065 14.5947 15.104 14.5441 14.919 14.438L9.06048 11.0679C8.78642 10.9102 8.59073 10.6551 8.50846 10.3499C8.42619 10.0447 8.46854 9.72587 8.62626 9.45229ZM7.74858 27.8427C7.64587 27.8427 7.54316 27.8291 7.44142 27.8023C7.13571 27.7205 6.88064 27.5248 6.72292 27.2513L2.87776 20.5915C2.66698 20.2269 2.66698 19.7737 2.87776 19.4091L6.72243 12.7493C6.88064 12.4757 7.13571 12.2801 7.44142 12.1983C7.74664 12.117 8.06548 12.1593 8.33906 12.3175L14.1869 15.7061C14.7496 16.0322 14.9433 16.7566 14.6177 17.3198L13.1997 19.7761C13.1198 19.9144 13.1198 20.0862 13.1997 20.2245L14.6182 22.6808C14.9433 23.2445 14.7501 23.9684 14.1869 24.2945L8.33906 27.6831C8.15651 27.7887 7.95401 27.8427 7.74858 27.8427ZM22.3571 36.619C22.3562 37.2699 21.8261 37.799 21.1752 37.799H13.4951C13.0741 37.799 12.6817 37.5727 12.4714 37.2081L8.62626 30.5483C8.46854 30.2747 8.42668 29.9559 8.50846 29.6507C8.59073 29.3454 8.7869 29.0904 9.06097 28.9326L14.919 25.5631C15.4832 25.2384 16.207 25.4331 16.5322 25.9963L17.9502 28.4522C18.0301 28.5904 18.1785 28.6766 18.3382 28.6766H21.1859C21.5019 28.6766 21.7988 28.7997 22.0222 29.0232C22.2457 29.2471 22.3683 29.544 22.3678 29.8605L22.3571 36.619ZM37.5464 30.5571L33.7062 37.2081C33.4959 37.5727 33.1035 37.799 32.6824 37.799H25.0024C24.3515 37.799 23.8214 37.2699 23.8204 36.619L23.8092 29.8605C23.8087 29.5445 23.9314 29.2471 24.1549 29.0232C24.3783 28.7997 24.6752 28.6766 24.9916 28.6766H27.8394C27.999 28.6766 28.1475 28.5904 28.2273 28.4522L29.6512 25.9866C29.8094 25.7125 30.0645 25.5168 30.3697 25.4355C30.6754 25.3538 30.9942 25.3961 31.2673 25.5543L37.1151 28.9429C37.6784 29.2695 37.8716 29.9934 37.5464 30.5571ZM43.3003 20.591L39.46 27.2425C39.2414 27.6212 38.8428 27.833 38.4339 27.833C38.2343 27.833 38.0318 27.7828 37.8468 27.6762L31.9883 24.3062C31.7142 24.1485 31.5185 23.8934 31.4363 23.5882C31.354 23.283 31.3959 22.9641 31.5541 22.6905L32.9779 20.2245C33.0578 20.0862 33.0578 19.9144 32.9779 19.7761L31.5541 17.31C31.3959 17.036 31.354 16.7171 31.4363 16.4119C31.518 16.1067 31.7142 15.8516 31.9883 15.6944L37.8468 12.3244C38.411 11.9997 39.1343 12.1944 39.46 12.7581L43.2998 19.4091C43.5106 19.7737 43.5106 20.2264 43.3003 20.591Z" fill="#706228"/>
<path d="M45.8423 19.4088L34.9776 0.590963C34.7668 0.226357 34.375 0 33.9539 0H12.2246C11.8035 0 11.4116 0.226357 11.2008 0.590963L0.336674 19.4088C0.125894 19.7734 0.125894 20.2266 0.336674 20.5912L11.2008 39.409C11.4116 39.7736 11.8035 40 12.2246 40H33.9539C34.375 40 34.7668 39.7736 34.9776 39.409L45.8423 20.5907C46.0526 20.2266 46.0526 19.7734 45.8423 19.4088ZM45.2065 20.2242L34.3423 39.042C34.2625 39.1802 34.1136 39.2664 33.9539 39.2664H12.2246C12.0649 39.2664 11.9164 39.1802 11.8366 39.042L0.971934 20.2242C0.892101 20.0859 0.892101 19.9141 0.971934 19.7758L11.8366 0.957515C11.9164 0.819267 12.0649 0.733592 12.2246 0.733592H33.9539C34.1136 0.733592 34.2625 0.819267 34.3423 0.957515L45.2065 19.7758C45.2864 19.9141 45.2864 20.0859 45.2065 20.2242Z" fill="#2D1F0D"/>
<path d="M31.0714 19.4087L27.5919 13.3822C27.3816 13.0176 26.9892 12.7908 26.5682 12.7908H19.609C19.1879 12.7908 18.7961 13.0176 18.5853 13.3822L15.1057 19.4087C14.8954 19.7733 14.8954 20.2265 15.1057 20.5911L18.5853 26.6175C18.7961 26.9822 19.1879 27.2085 19.609 27.2085H26.5682C26.9892 27.2085 27.3816 26.9822 27.5919 26.6175L31.0714 20.5906C31.2817 20.2265 31.2817 19.7733 31.0714 19.4087ZM30.4362 20.224L26.9566 26.251C26.8768 26.3892 26.7278 26.4749 26.5682 26.4749H19.609C19.4493 26.4749 19.3004 26.3892 19.2206 26.251L15.741 20.224C15.6611 20.0858 15.6611 19.914 15.741 19.7757L19.2206 13.7488C19.3004 13.6105 19.4493 13.5248 19.609 13.5248H26.5682C26.7278 13.5248 26.8768 13.6105 26.9566 13.7488L30.4362 19.7757C30.516 19.914 30.516 20.0858 30.4362 20.224Z" fill="#2D1F0D"/>
<path d="M22.0215 2.54801C21.7981 2.32409 21.5011 2.20093 21.1852 2.20093H13.4949C13.0738 2.20093 12.6815 2.42777 12.4712 2.79238L8.62604 9.45215C8.46832 9.72572 8.42597 10.0446 8.50823 10.3498C8.5905 10.655 8.78619 10.9101 9.06025 11.0678L14.9188 14.4378C15.1037 14.544 15.3063 14.5946 15.5058 14.5946C15.9147 14.5946 16.3134 14.3828 16.532 14.0041L17.95 11.5483C18.0298 11.4095 18.1783 11.3239 18.338 11.3239H21.1745C21.8253 11.3239 22.3555 10.7942 22.3564 10.1434L22.3671 3.3848C22.3676 3.06887 22.245 2.77193 22.0215 2.54801ZM21.6228 10.1424C21.6223 10.3892 21.4213 10.5903 21.1745 10.5903H18.338C17.9174 10.5903 17.525 10.8166 17.3147 11.1812L15.8967 13.6371C15.7731 13.8508 15.4985 13.9248 15.2848 13.8016L9.42632 10.4316C9.32215 10.3717 9.24815 10.2753 9.217 10.1595C9.18585 10.0436 9.20142 9.92287 9.2613 9.8187L13.1064 3.15893C13.1863 3.02068 13.3352 2.93501 13.4949 2.93501H21.1852C21.305 2.93501 21.4174 2.98174 21.5021 3.06644C21.5868 3.15114 21.6335 3.26408 21.6335 3.38383L21.6228 10.1424Z" fill="#2D1F0D"/>
<path d="M37.5465 9.44339L33.7063 2.79238C33.496 2.42777 33.1036 2.20093 32.6825 2.20093H24.9927C24.6768 2.20093 24.3794 2.32409 24.1564 2.54801C23.933 2.77193 23.8103 3.06887 23.8108 3.38529L23.8215 10.1434C23.8225 10.7942 24.3526 11.3239 25.0034 11.3239H27.8395C27.9991 11.3239 28.1476 11.4095 28.2274 11.5483L29.6513 14.0139C29.8095 14.2874 30.0646 14.4831 30.3698 14.5649C30.4715 14.5922 30.5747 14.6053 30.677 14.6053C30.8824 14.6053 31.0849 14.5513 31.2674 14.4456L37.1152 11.0571C37.6785 10.7309 37.8717 10.0071 37.5465 9.44339ZM36.7477 10.4223L30.8999 13.8109C30.7962 13.8707 30.675 13.8868 30.5592 13.8561C30.4433 13.825 30.3464 13.751 30.2866 13.6468L28.8632 11.1812C28.6524 10.8166 28.26 10.5903 27.8395 10.5903H25.0034C24.7566 10.5903 24.5556 10.3892 24.5551 10.1424L24.5444 3.38383C24.5444 3.26408 24.5906 3.15114 24.6753 3.06644C24.76 2.98174 24.873 2.93501 24.9927 2.93501H32.6825C32.8422 2.93501 32.9912 3.02068 33.071 3.15893L36.9113 9.81042C37.0344 10.0241 36.9609 10.2987 36.7477 10.4223Z" fill="#2D1F0D"/>
<path d="M43.2996 19.4086L39.4598 12.7576C39.1342 12.1939 38.4108 11.9992 37.8466 12.3239L31.9881 15.694C31.714 15.8512 31.5179 16.1063 31.4361 16.4115C31.3538 16.7167 31.3957 17.0355 31.5539 17.3096L32.9777 19.7757C33.0576 19.9139 33.0576 20.0858 32.9777 20.224L31.5539 22.6901C31.3957 22.9637 31.3538 23.2825 31.4361 23.5877C31.5183 23.893 31.714 24.148 31.9881 24.3058L37.8466 27.6758C38.0316 27.7824 38.2341 27.8325 38.4337 27.8325C38.8426 27.8325 39.2413 27.6208 39.4598 27.2421L43.3001 20.5906C43.5104 20.226 43.5104 19.7733 43.2996 19.4086ZM42.6644 20.224L38.8246 26.875C38.7009 27.0892 38.4264 27.1627 38.2127 27.0396L32.3542 23.6695C32.25 23.6096 32.176 23.5133 32.1448 23.3974C32.1137 23.2815 32.1293 23.1608 32.1891 23.0567L33.613 20.5906C33.8238 20.226 33.8238 19.7733 33.613 19.4086L32.1891 16.9426C32.1293 16.8389 32.1132 16.7177 32.1444 16.6018C32.1755 16.486 32.25 16.3896 32.3542 16.3297L38.2127 12.9597C38.4264 12.837 38.7009 12.9105 38.8246 13.1242L42.6644 19.7757C42.7442 19.9139 42.7442 20.0858 42.6644 20.224Z" fill="#2D1F0D"/>
<path d="M37.1162 28.9426L31.2683 25.554C30.9953 25.3958 30.6764 25.3535 30.3707 25.4352C30.0655 25.5165 29.8104 25.7122 29.6522 25.9863L28.2283 28.4519C28.1485 28.5901 28 28.6763 27.8404 28.6763H24.9927C24.6762 28.6763 24.3793 28.7994 24.1559 29.0229C23.9324 29.2468 23.8098 29.5442 23.8102 29.8602L23.8214 36.6187C23.8224 37.2696 24.3525 37.7987 25.0034 37.7987H32.6834C33.1045 37.7987 33.4969 37.5724 33.7072 37.2078L37.5475 30.5568C37.8726 29.9931 37.6794 29.2692 37.1162 28.9426ZM32.6834 37.0651H25.0034C24.7566 37.0651 24.5555 36.8641 24.555 36.6173L24.5443 29.8587C24.5438 29.7389 24.5906 29.6265 24.6753 29.5413C24.76 29.4566 24.8724 29.4099 24.9927 29.4099H27.8404C28.261 29.4099 28.6533 29.1835 28.8641 28.8189L30.2875 26.3528C30.3478 26.2492 30.4442 26.1747 30.5601 26.144C30.6759 26.1129 30.7971 26.1289 30.9008 26.1893L36.7486 29.5778C36.9618 29.7015 37.0353 29.976 36.9122 30.1897L33.0719 36.8407C32.9921 36.9795 32.8431 37.0651 32.6834 37.0651Z" fill="#2D1F0D"/>
<path d="M22.0218 29.0228C21.7983 28.7994 21.5014 28.6762 21.1855 28.6762H18.3378C18.1781 28.6762 18.0296 28.59 17.9498 28.4518L16.5318 25.9959C16.2066 25.4327 15.4827 25.238 14.9186 25.5627L9.06052 28.9323C8.78646 29.09 8.59029 29.3451 8.50802 29.6503C8.42624 29.9555 8.4681 30.2743 8.62582 30.5479L12.471 37.2077C12.6813 37.5723 13.0736 37.7986 13.4947 37.7986H21.1748C21.8256 37.7986 22.3557 37.2695 22.3567 36.6187L22.3674 29.8601C22.3679 29.5437 22.2452 29.2467 22.0218 29.0228ZM21.6231 36.6172C21.6226 36.864 21.4216 37.065 21.1748 37.065H13.4947C13.335 37.065 13.1861 36.9794 13.1062 36.8411L9.26157 30.1814C9.20121 30.0772 9.18563 29.9565 9.21678 29.8406C9.24794 29.7247 9.32242 29.6284 9.4261 29.5685L15.2846 26.1984C15.4983 26.0753 15.7729 26.1493 15.8965 26.363L17.3145 28.8188C17.5248 29.1834 17.9172 29.4098 18.3378 29.4098H21.1855C21.3052 29.4098 21.4177 29.4565 21.5024 29.5412C21.5871 29.6264 21.6338 29.7389 21.6338 29.8586L21.6231 36.6172Z" fill="#2D1F0D"/>
<path d="M14.619 22.6804L13.2005 20.224C13.1207 20.0858 13.1207 19.9139 13.2005 19.7757L14.6185 17.3194C14.9442 16.7561 14.7504 16.0318 14.1877 15.7056L8.3399 12.3171C8.06632 12.1589 7.74748 12.1165 7.44226 12.1978C7.13655 12.2796 6.88148 12.4753 6.72327 12.7489L2.8786 19.4087C2.66783 19.7733 2.66783 20.2265 2.8786 20.5911L6.72376 27.2508C6.88148 27.5244 7.13655 27.7201 7.44226 27.8019C7.544 27.8287 7.64671 27.8423 7.74942 27.8423C7.95485 27.8423 8.15735 27.7883 8.3399 27.6826L14.1877 24.2941C14.7509 23.9679 14.9442 23.2441 14.619 22.6804ZM13.8197 23.6593L7.97189 27.0478C7.8682 27.1077 7.74748 27.1238 7.63162 27.0931C7.51576 27.062 7.41889 26.988 7.35902 26.8838L3.51387 20.224C3.43403 20.0858 3.43403 19.9139 3.51387 19.7757L7.35902 13.1159C7.41889 13.0122 7.51576 12.9378 7.63162 12.9071C7.67008 12.8964 7.70902 12.8915 7.74796 12.8915C7.82585 12.8915 7.90276 12.912 7.97189 12.9519L13.8197 16.3404C14.0334 16.4646 14.1064 16.7391 13.9833 16.9528L12.5652 19.4087C12.3549 19.7733 12.3549 20.2265 12.5652 20.5911L13.9833 23.0469C14.1069 23.2611 14.0334 23.5357 13.8197 23.6593Z" fill="#2D1F0D"/>
</svg>
